<svg width="40" height="40" viewBox="0 0 40 40" fill="none" xmlns="http://www.w3.org/2000/svg">
<rect width="40" height="40" rx="10" fill="url(#paint0_linear_76_3389)"/>
<circle cx="18.4884" cy="9.96019" r="2.13646" fill="white"/>
<path d="M16.41 31.8242C14.5391 30.8288 8.05878 22.9183 29.9027 10.1079C30.8116 9.57487 30.3965 8.48165 29.413 8.85991C24.117 10.8969 19.317 14.0113 17.1227 15.705C15.1012 17.2012 5.26559 26.2582 16.41 31.8242Z" fill="white"/>
<path d="M21.3495 17.2334L20.25 18.2452C19.8835 18.5825 19.8592 19.1565 20.1766 19.5404C23.2045 23.2025 24.4531 26.2549 24.6188 28.7601C24.6936 29.8901 27.0789 32.2075 27.4605 31.1412C29.1255 26.489 25.7908 20.8179 22.6218 17.2817C22.2881 16.9093 21.7175 16.8948 21.3495 17.2334Z" fill="white"/>
<path d="M9.68578 10.6951L9.10023 11.3108C8.64643 11.788 8.82706 12.5748 9.43581 12.826C11.9775 13.8747 13.7762 14.8991 14.7605 15.554C15.14 15.8065 15.6516 15.7887 15.9875 15.4807L16.7186 14.8102C17.1536 14.4112 17.1045 13.7137 16.5986 13.4093C14.7071 12.271 12.208 11.1228 10.6955 10.481C10.3473 10.3333 9.94645 10.421 9.68578 10.6951Z" fill="url(#paint1_linear_76_3389)"/>
<defs>
<linearGradient id="paint0_linear_76_3389" x1="21.1149" y1="-8.48347" x2="56.1732" y2="29.2671" gradientUnits="userSpaceOnUse">
<stop stop-color="#62DCFF"/>
<stop offset="1" stop-color="#00B5E9"/>
</linearGradient>
<linearGradient id="paint1_linear_76_3389" x1="12.8559" y1="10.2407" x2="12.8559" y2="16.0167" gradientUnits="userSpaceOnUse">
<stop stop-color="#4E8CF7"/>
<stop offset="1" stop-color="#2230EB"/>
</linearGradient>
</defs>
</svg>
