<svg width="147" height="41" viewBox="0 0 147 41" fill="none" xmlns="http://www.w3.org/2000/svg">
<rect x="107" width="40" height="40" rx="10" fill="#48C5E9"/>
<circle cx="125.488" cy="9.96019" r="2.13646" fill="white"/>
<path d="M123.41 31.8242C121.539 30.8288 115.059 22.9183 136.903 10.1079C137.812 9.57487 137.396 8.48165 136.413 8.85991C131.117 10.8969 126.317 14.0113 124.123 15.705C122.101 17.2012 112.266 26.2582 123.41 31.8242Z" fill="white"/>
<path d="M128.35 17.2334L127.25 18.2452C126.884 18.5825 126.859 19.1565 127.177 19.5404C130.204 23.2025 131.453 26.2549 131.619 28.7601C131.694 29.8901 134.079 32.2075 134.461 31.1412C136.126 26.489 132.791 20.8179 129.622 17.2817C129.288 16.9093 128.717 16.8948 128.35 17.2334Z" fill="white"/>
<path d="M116.686 10.6951L116.1 11.3108C115.646 11.788 115.827 12.5748 116.436 12.826C118.978 13.8747 120.776 14.8991 121.761 15.554C122.14 15.8065 122.652 15.7887 122.987 15.4807L123.719 14.8102C124.154 14.4112 124.104 13.7137 123.599 13.4093C121.707 12.271 119.208 11.1228 117.696 10.481C117.347 10.3333 116.946 10.421 116.686 10.6951Z" fill="#226CEB"/>
<path d="M24.012 27C23.772 29.112 22.62 30.804 20.556 32.076C18.636 33.252 16.188 33.84 13.212 33.84C9.42 33.84 6.564 32.736 4.644 30.528C3.228 28.896 2.52 26.88 2.52 24.48C2.52 22.464 3.024 20.736 4.032 19.296L7.02 18.648C5.94 20.352 5.4 22.188 5.4 24.156C5.4 26.292 6.096 27.972 7.488 29.196C8.856 30.42 10.764 31.032 13.212 31.032C15.276 31.032 16.98 30.672 18.324 29.952C19.668 29.232 20.484 28.248 20.772 27H17.172L18.684 24.084H24.12V27H24.012ZM10.8 40.212C9.624 40.212 9.036 39.612 9.036 38.412C9.036 37.236 9.624 36.648 10.8 36.648C11.952 36.648 12.528 37.236 12.528 38.412C12.528 39.612 11.952 40.212 10.8 40.212ZM15.372 40.212C14.196 40.212 13.608 39.612 13.608 38.412C13.608 37.236 14.196 36.648 15.372 36.648C16.524 36.648 17.1 37.236 17.1 38.412C17.1 39.612 16.524 40.212 15.372 40.212ZM24.5326 6.768L25.3606 5.22H26.3326C26.0926 4.788 25.9726 4.332 25.9726 3.852C25.9726 3.156 26.2366 2.556 26.7646 2.052C27.2926 1.524 27.9166 1.26 28.6366 1.26C29.2366 1.26 29.8126 1.452 30.3646 1.836V3.42C29.8366 3.012 29.3326 2.808 28.8526 2.808C27.9646 2.808 27.5206 3.204 27.5206 3.996C27.5206 4.404 27.6886 4.812 28.0246 5.22H31.3006L30.4726 6.768H24.5326ZM21.5086 27V24.084H23.8846C26.2366 24.084 27.4126 22.884 27.4126 20.484V13.032L30.5086 11.376V20.592C30.5086 22.632 29.8966 24.24 28.6726 25.416C27.5446 26.472 26.0686 27 24.2446 27H21.5086ZM42.0601 27C39.9721 27 38.3641 26.328 37.2361 24.984C36.2761 23.832 35.7961 22.368 35.7961 20.592V5.436L38.8921 3.78V20.484C38.8921 22.884 40.0681 24.084 42.4201 24.084H44.7961V27H42.0601ZM53.1686 7.236C51.9926 7.236 51.4046 6.636 51.4046 5.436C51.4046 4.26 51.9926 3.672 53.1686 3.672C54.3206 3.672 54.8966 4.26 54.8966 5.436C54.8966 6.636 54.3206 7.236 53.1686 7.236ZM57.6326 24.084H64.3286V27H55.5446C54.6086 27 53.7926 26.916 53.0966 26.748C52.4246 26.916 51.6086 27 50.6486 27H41.9006V24.084H48.5966C47.1086 22.38 46.3646 20.496 46.3646 18.432C46.3646 16.08 47.0246 14.208 48.3446 12.816C49.5446 11.544 51.1286 10.908 53.0966 10.908C55.3526 10.908 57.0926 11.724 58.3166 13.356C59.3486 14.7 59.8646 16.392 59.8646 18.432C59.8646 20.496 59.1206 22.38 57.6326 24.084ZM53.1326 23.76C54.2366 23.376 55.1366 22.68 55.8326 21.672C56.5286 20.64 56.8766 19.512 56.8766 18.288C56.8766 16.896 56.5286 15.804 55.8326 15.012C55.1606 14.196 54.2486 13.788 53.0966 13.788C51.9446 13.788 51.0206 14.196 50.3246 15.012C49.6526 15.828 49.3166 16.92 49.3166 18.288C49.3166 19.488 49.6766 20.604 50.3966 21.636C51.1166 22.668 52.0286 23.376 53.1326 23.76ZM81.2658 3.708C80.2098 3.708 79.6818 3.168 79.6818 2.088C79.6818 1.032 80.2098 0.503998 81.2658 0.503998C82.3218 0.503998 82.8498 1.032 82.8498 2.088C82.8498 3.168 82.3218 3.708 81.2658 3.708ZM78.9978 7.992C77.8218 7.992 77.2338 7.392 77.2338 6.192C77.2338 5.016 77.8218 4.428 78.9978 4.428C80.1498 4.428 80.7258 5.016 80.7258 6.192C80.7258 7.392 80.1498 7.992 78.9978 7.992ZM83.5698 7.992C82.3938 7.992 81.8058 7.392 81.8058 6.192C81.8058 5.016 82.3938 4.428 83.5698 4.428C84.7218 4.428 85.2978 5.016 85.2978 6.192C85.2978 7.392 84.7218 7.992 83.5698 7.992ZM61.4658 27V24.084H64.7058C67.0338 24.084 68.1978 22.884 68.1978 20.484V15.444L71.2938 13.788V20.484C71.2938 22.884 72.4698 24.084 74.8218 24.084H76.4778C78.8298 24.084 80.0058 22.884 80.0058 20.484V14.22L83.1018 12.6V20.484C83.1018 22.884 84.2658 24.084 86.5938 24.084H88.2858C90.6378 24.084 91.8138 22.884 91.8138 20.484V13.032L94.9098 11.376V20.592C94.9098 22.632 94.2978 24.228 93.0738 25.38C91.9938 26.436 90.5538 26.976 88.7538 27H86.2698C84.1578 27 82.5858 26.292 81.5538 24.876C80.5218 26.268 78.9858 26.976 76.9458 27H74.4618C72.3978 27 70.8258 26.292 69.7458 24.876C68.7138 26.292 67.1418 27 65.0298 27H61.4658Z" fill="#1E252D"/>
</svg>
